<svg xmlns="http://www.w3.org/2000/svg" viewBox="60 50 240 170" role="img" aria-label="Huka Artist">
  <defs>
    <linearGradient id="ha-gold-m" x1="0" y1="0" x2="0" y2="1">
      <stop offset="0%" stop-color="#e9c876"/>
      <stop offset="22%" stop-color="#f7e6a6"/>
      <stop offset="45%" stop-color="#c9962f"/>
      <stop offset="68%" stop-color="#f3d987"/>
      <stop offset="100%" stop-color="#a9791f"/>
    </linearGradient>
  </defs>

  <g fill="url(#ha-gold-m)">
    <rect x="95" y="68" width="18" height="138" rx="1"/>
    <rect x="86" y="68" width="36" height="7" rx="1"/>
    <rect x="86" y="199" width="36" height="7" rx="1"/>
    <rect x="139" y="68" width="18" height="138" rx="1"/>
    <rect x="130" y="68" width="36" height="7" rx="1"/>
    <rect x="130" y="199" width="36" height="7" rx="1"/>
    <rect x="113" y="128" width="26" height="16"/>
  </g>

  <g fill="none" stroke="url(#ha-gold-m)" stroke-width="17" stroke-linejoin="round" stroke-linecap="round">
    <path d="M184 208 L214 58 L244 208"/>
  </g>
  <g fill="url(#ha-gold-m)">
    <rect x="197" y="160" width="34" height="13"/>
    <rect x="172" y="201" width="30" height="7" rx="1"/>
    <rect x="226" y="201" width="30" height="7" rx="1"/>
  </g>

  <path d="M70 196 C120 224 160 168 190 168 C224 168 256 206 296 178"
        fill="none" stroke="url(#ha-gold-m)" stroke-width="7" stroke-linecap="round"/>
  <path d="M82 188 C124 210 162 162 190 162 C222 162 252 196 288 172"
        fill="none" stroke="url(#ha-gold-m)" stroke-width="3.5" stroke-linecap="round" opacity="0.7"/>
</svg>
